<svg xmlns="http://www.w3.org/2000/svg" xmlns:xlink="http://www.w3.org/1999/xlink" width="40" height="24" version="1.1" viewBox="0 0 40 24"><g fill="none" fill-rule="evenodd" stroke="none" stroke-width="1"><g fill="#2E2D2D"><g transform="translate(-557.000000, -113.000000) translate(557.000000, 113.000000)"><path id="Shape" d="M1.9999999,3.99999994 L37.9999999,3.99999994 C39.1000001,3.99999994 39.9999999,3.09999996 39.9999999,1.99999994 C39.9999999,0.899999945 39.1000001,-5.99999718e-08 37.9999999,-5.99999718e-08 L1.9999999,-5.99999718e-08 C0.899999904,-5.99999718e-08 -1.00000004e-07,0.899999945 -1.00000004e-07,1.99999994 C-1.00000004e-07,3.09999996 0.899999904,3.99999994 1.9999999,3.99999994 Z M37.9999999,9.99999999 L1.9999999,9.99999999 C0.899999904,9.99999999 -1.00000004e-07,10.9 -1.00000004e-07,12 C-1.00000004e-07,13.1 0.899999904,14 1.9999999,14 L37.9999999,14 C39.1000001,14 39.9999999,13.1 39.9999999,12 C39.9999999,10.9 39.1000001,9.99999999 37.9999999,9.99999999 Z M37.9999999,20 L1.9999999,20 C0.899999904,20 -1.00000004e-07,20.9 -1.00000004e-07,22 C-1.00000004e-07,23.1000001 0.899999904,24 1.9999999,24 L37.9999999,24 C39.1000001,24 39.9999999,23.1000001 39.9999999,22 C39.9999999,20.9 39.1000001,20 37.9999999,20 Z"/></g></g></g></svg>